<?xml version='1.0' encoding='utf-8'?>
<svg xmlns="http://www.w3.org/2000/svg" width="3e3" height="3e3" version="1.1" viewBox="0 0 793.75 793.75"> <g transform="translate(0 496.75)"> <path d="m366.83 286.58c-92.718-7.3742-179.02-47.018-244.16-112.16-61.214-61.214-100.28-141.81-110.57-228.13-3.3431-28.045-3.3431-64.158 0-92.203 8.2191-68.95 36.051-136.58 78.861-191.62 22.32-28.698 53.13-58.316 81.438-78.286 26.406-18.628 56.756-34.965 84.987-45.747 45.115-17.232 90.339-25.497 139.51-25.497 43.999 0 81.587 6.0424 123.87 19.913 20.88 6.8491 46.133 18.326 70.556 32.065 10.34 5.817 32.344 20.552 42.093 28.188 25.335 19.843 50.722 45.203 70.264 70.19 6.5063 8.3192 19.108 26.667 24.763 36.056 13.586 22.554 29.296 56.632 36.591 79.375 13.322 41.529 19.115 78.339 19.115 121.47 0 64.864-13.981 121.92-43.912 179.2-19.524 37.361-40.044 65.263-69.888 95.029-30.699 30.619-62.763 53.69-102.28 73.591-42.372 21.341-91.674 34.697-142.63 38.639-11.864 0.91784-46.756 0.88081-58.613-0.0622z" fill="#a4988a" stroke-width=".80177"/> <path d="m370.44 285.91c-3.3073-0.28639-6.3912-0.75486-6.8531-1.041-0.4619-0.28617-4.7914-0.74133-9.6212-1.0114-25.741-1.4396-67.786-11.791-100.98-24.863-11.27-4.4376-35.859-16.204-46.367-22.187-30.309-17.26-56.733-37.562-82.749-63.578-22.475-22.475-38.901-42.952-55.014-68.582-15.362-24.435-29.895-55.277-36.765-78.019-1.2243-4.0528-4.1128-13.502-6.4189-20.999-10.685-34.735-15.961-72.453-14.86-106.23 0.90384-27.731 2.5211-45.294 6.0537-65.745 0.87599-5.0712 1.5951-9.494 1.598-9.8284 0.0029-0.33447 0.67119-0.19228 1.485 0.31597 1.2073 0.75399 1.9587 0.57076 4.0816-0.99541l2.6019-1.9195 1.7613 2.2049c0.96873 1.2127 2.1543 2.2049 2.6347 2.2049 1.4777 0 4.3163-7.7832 4.8249-13.229 0.46416-4.9706 0.40681-5.1934-1.5265-5.9284-1.1049-0.42007-2.24-1.3661-2.5225-2.1023-0.99137-2.5835 2.0135-18.212 6.8172-35.456 5.2261-18.761 12.665-38.861 19.36-52.316 16.208-32.572 54.229-80.429 85.965-108.2 16.43-14.38 37.353-29.74 52.115-38.259 36.856-21.269 51.93-27.993 85.789-38.269 43.59-13.229 74.681-18.125 115.1-18.125 59.234 0 118.77 13.856 169.53 39.454 39.012 19.675 70.237 41.731 101.15 71.447 7.8787 7.5741 14.843 15.778 13.394 15.778-0.2515 0-4.1178-3.5484-8.5919-7.8854-9.5162-9.2248-19.274-16.613-33.924-25.686-16.943-10.493-19.37-11.426-31.811-12.224-5.8024-0.37236-14.049-1.2844-18.326-2.0268-6.3696-1.1056-8.001-1.163-9.0199-0.31746-1.6822 1.3961-1.68 1.4159 1.9287 17.961 1.7449 7.9998 3.594 17.235 4.1092 20.523 0.73799 4.7104 2.0207 8.0554 6.0478 15.772 5.3695 10.288 6.0109 12.873 3.708 14.939-2.6279 2.3581-6.656 2.4032-17.882 0.19998-11.908-2.3371-22.989-3.3345-27.546-2.4796-4.9146 0.92199-6.0852 2.7581-6.0852 9.5448 0 7.6897-1.713 12.56-5.6776 16.142-1.7305 1.5634-3.5186 2.8426-3.9735 2.8426-0.45489 0-4.9321 1.6236-9.9493 3.608-7.7978 3.0841-9.9511 3.608-14.831 3.608-11.781 0-17.978-5.6782-17.939-16.436 0.0488-13.407 4.491-17.77 23.384-22.972 3.3743-0.92902 7.572-2.0934 9.3281-2.5876 4.4171-1.243 5.2144-3.7147 3.4132-10.582-2.3526-8.9697-6.3516-16.256-14.382-26.202-4.1861-5.1852-10.396-13.557-13.799-18.603-9.5367-14.14-12.218-15.95-28.554-19.277-19.423-3.9557-36.673-11.091-39.095-16.171-1.1659-2.4449-1.158-3.0153 0.0967-6.9958 0.96242-3.0532 1.2279-5.7194 0.89832-9.0225-0.72193-7.2358-0.9799-7.9534-3.2273-8.9774-3.7573-1.712-13.076-2.0174-19.99-0.65513-11.164 2.1998-14.438 2.2853-52.224 1.3635-38-0.92713-47.306-0.61737-59.926 1.9947-3.0332 0.62782-7.0632 1.891-8.9556 2.8071-4.1707 2.019-23.412 20.947-24.106 23.714-0.6611 2.6341 0.62337 3.9412 5.9778 6.0832 4.053 1.6214 5.863 1.8103 16.965 1.7705 13.711-0.0491 17.191-0.59815 32.472-5.1229 13.393-3.9658 17.692-4.8162 24.348-4.8162 10.255 0 16.493 3.3766 20.479 11.085 1.9471 3.7653 8.0459 8.6001 12.682 10.053 2.3252 0.72897 9.4592 1.8701 15.853 2.5358 14.81 1.542 19.338 2.7224 29.416 7.6688 9.3615 4.5947 14.76 9.08 20.063 16.668 5.0695 7.2548 8.2045 10.493 16.923 17.478 8.1107 6.4981 12.172 11.831 12.172 15.982 0 5.5496-1.2458 6.3991-13.823 9.4268-13.68 3.293-21.175 8.0646-25.686 16.354-3.0413 5.5879-3.3968 9.2509-1.4742 15.192 0.8871 2.7414 2.0191 7.973 2.5155 11.626 1.1352 8.3519 2.8855 12.342 7.6468 17.432 4.8188 5.1517 11.552 9.3793 25.596 16.072 6.1808 2.9455 13.667 6.8479 16.637 8.672 16.557 10.171 21.867 11.737 39.099 11.528 14.862-0.17986 14.56-0.23444 40.89 7.3878 28.939 8.3775 30.051 8.8584 40.088 17.335 9.3524 7.8982 13.915 9.9029 28.062 12.329 6.3941 1.0965 16.305 3.4547 22.024 5.2404 13.825 4.3166 27.202 7.2578 32.994 7.2542 8.5188-6e-3 11.787-3.829 14.198-16.61 0.90076-4.7758 2.3737-8.737 5.3649-14.428 3.5554-6.7644 4.0562-8.2689 3.636-10.925-0.62143-3.9284-2.8538-8.3051-7.8348-15.36-7.9752-11.297-32.118-48.198-33.572-51.313-0.82315-1.7639-1.5046-4.128-1.5142-5.2535-0.0261-3.0308 7.5103-12.5 10.817-13.592 2.723-0.89867 3.8634-0.61648 14.977 3.706 3.2407 1.2605 4.1532 1.3222 6.579 0.44503 3.8728-1.4004 6.1729-0.0902 14.263 8.1247 3.9396 4.0004 7.1148 6.5694 8.1195 6.5694 2.0127 0 7.375 8.5184 17.16 27.26 29.796 57.069 44.324 116.07 44.324 180 0 41.514-5.4604 76.857-18.209 117.86-5.7947 18.637-18.154 48.586-20.351 49.314-0.70251 0.23287-2.3739 1.9504-3.7142 3.8168-3.2445 4.518-15.416 27.317-19.146 35.865-3.3825 7.7505-11.404 20.138-20.192 31.182-4.9025 6.161-6.1254 7.2905-6.7279 6.2137-0.40504-0.72377-1.193-1.3159-1.7511-1.3159-0.55804 0-5.8618 5.1223-11.786 11.383-5.9244 6.2606-17.446 18.28-25.604 26.711-8.158 8.4304-16.061 17.111-17.563 19.29-2.8837 4.185-5.2108 6.1368-18.114 15.192-32.01 22.465-65.6 39.64-99.02 50.631-27.023 8.8868-37.824 11.286-75.366 16.738-19.428 2.8215-57.847 4.2818-74.564 2.8342zm48.674-14.478c8.6673-2.0827 14.406-4.5043 22.684-9.5725 3.7483-2.2949 9.07-5.2331 11.826-6.5294 2.7561-1.2963 7.3197-3.4403 10.141-4.7645 6.566-3.0812 10.403-7.2546 9.8702-10.734-1.0651-6.9494-4.1704-17.539-6.6089-22.537-1.506-3.0868-2.9722-6.8752-3.2584-8.4186-0.76281-4.1142-3.9199-10.038-8.9127-16.722-9.2404-12.372-10.458-19.024-6.2592-34.19 1.5599-5.634 2.2425-10.044 2.296-14.833 0.0814-7.284-0.82733-10.038-4.4192-13.391-4.154-3.8786-7.2408-4.4958-25.521-5.1035-13.475-0.44791-18.376-0.91243-22.449-2.1277-8.0223-2.3932-16.97-6.3814-24.042-10.717-3.534-2.1663-9.3001-5.7011-12.814-7.855-3.5135-2.154-9.3764-6.6704-13.029-10.037-8.9258-8.2264-14.676-11.075-22.438-11.116-6.3276-0.03343-12.273 1.4105-20.932 5.0837-16.298 6.9133-28.167 4.1113-44.818-10.58-5.2374-4.6211-11.08-8.9045-14.979-10.982-10.346-5.5128-17.669-12.475-22.08-20.991-5.1463-9.9377-23.516-57.515-26.422-68.431-2.6218-9.8505-6.0709-16.703-15.427-30.651-10.956-16.332-10.921-18.941 0.32114-24.065 7.3095-3.3311 8.7563-4.5135 10.699-8.7444 4.0444-8.8074-0.5343-16.937-11.495-20.41-4.4423-1.4074-7.0417-4.929-7.0417-9.5398 0-4.0334 1.3879-6.7319 4.2503-8.2638 0.96951-0.51886 5.918-1.1826 10.997-1.4751 8.9926-0.5178 9.4548-0.63824 17.686-4.6084 9.2136-4.4441 14.372-8.987 14.372-12.658 0-5.7718-9.5336-17.512-17.498-21.548-2.7796-1.4085-6.9026-2.5014-12.288-3.2572-10.431-1.4638-15.957-4.0399-18.662-8.6996-2.1983-3.7868-2.5854-5.6263-3.6126-17.17-0.83909-9.4294-2.5154-13.786-8.8035-22.883-4.2501-6.148-7.3551-8.5952-10.905-8.5952-5.8086 0-18.141 9.8966-22.378 17.959-3.1107 5.9184-2.8038 9.7222 1.4565 18.052 6.9201 13.53 8.2157 22.121 5.764 38.222-0.73017 4.795-0.96204 10.693-0.67848 17.259 0.32839 7.6039 0.10634 11.576-0.93418 16.711-2.0023 9.8819-3.426 12.063-7.8753 12.063-2.3584 0-8.1363-6.3104-11.034-12.051-4.4202-8.7564-4.728-11.447-4.5569-39.843 0.15185-25.205 0.11489-25.877-1.5121-27.504-1.4432-1.4432-1.9518-1.5384-3.7774-0.7066-4.5881 2.0905-7.571 8.4584-12.175 25.991-3.8988 14.848-5.8278 20.056-8.4796 22.894-4.1758 4.4702-7.813 2.8908-10.704-4.648-2.8464-7.4235-7.1824-12.99-11.966-15.362-3.6777-1.8236-4.1639-1.8724-9.6207-0.96512-8.8389 1.4696-8.8374 1.469-10.803 4.3827-2.5802 3.8256-4.5333 9.2732-7.7346 21.573-3.8318 14.722-4.3485 18.665-5.4632 41.689-1.5211 31.42-1.2796 40.84 1.3409 52.3 4.4605 19.506 10.819 35.177 17.051 42.024 4.2034 4.6183 5.3813 4.1202 8.5104-3.599 3.3918-8.3672 6.8469-11.288 10.512-8.8867 1.0147 0.66486 4.1438 5.6557 6.9535 11.091 2.8536 5.5199 6.6544 11.545 8.6106 13.65 3.5154 3.7822 3.952 3.99 15.441 7.3461 4.8759 1.4243 10.327 4.7149 13.769 8.3121 4.3061 4.4999 14.264 19.18 18.141 26.744 5.5545 10.836 6.3218 14.841 4.6433 24.238-0.73246 4.1007-1.3317 8.9108-1.3317 10.689 0 4.4372 3.4078 10.833 11.602 21.775 3.7337 4.9857 7.1277 10.293 7.5423 11.795 0.41459 1.5015 0.56269 4.8376 0.32911 7.4135-0.81684 9.0082 2.8267 13.079 19.333 21.6 6.3957 3.3015 14.658 8.5424 21.648 13.732 12.078 8.967 24.917 17.609 37.723 25.392 5.567 3.3834 10.196 7.0904 15.603 12.495 14.101 14.094 30.615 24.825 49.38 32.088 2.2049 0.85341 9.4208 3.1945 16.035 5.2024 14.996 4.5523 22.544 8.0611 33.718 15.676 9.4165 6.4171 12.69 7.6752 25.825 9.9248 17.993 3.0818 37.836 3.2412 49.664 0.39916zm277.38-137.61c7.886-8.3616 17.888-27.111 15.654-29.345-4.267-4.267-20.648 14.843-23.488 27.4-1.2531 5.5416 3.3607 6.6873 7.8332 1.945zm-590.31-26.22c2.1194-1.5497 2.5206-7.4283 0.89149-13.063-2.3672-8.1873-9.7368-18.611-16.75-23.691-5.7721-4.1813-12.532-2.3717-12.532 3.3547 0 6.3091 6.8805 20.975 12.962 27.63 5.7087 6.2462 11.709 8.4902 15.429 5.7702zm406.59-2.165c5.8983-2.0293 11.312-5.0784 20.222-11.389 13.509-9.5691 19.44-16.817 19.44-23.756 0-2.0042-0.96797-4.9817-2.6803-8.2448-1.4742-2.8092-5.0508-9.6175-7.948-15.13s-5.7058-11.646-6.2413-13.63c-0.58711-2.1756-1.0126-9.8147-1.0719-19.242-0.0885-14.083-0.26574-15.996-1.7865-19.283-2.404-5.1955-5.9679-8.9442-13.438-14.135-8.025-5.5762-11.361-6.8701-15.043-5.8354-4.272 1.2005-11.314 7.3335-13.929 12.13-2.9595 5.4297-3.0599 11.754-0.34146 21.511 1.5961 5.7282 1.8992 8.669 1.9008 18.441 2e-3 10.746-0.22068 12.505-2.9408 23.251-4.1486 16.39-4.8347 20.805-4.8592 31.269-0.0445 18.965 4.7 25.597 18.343 25.639 3.6509 0.0113 7.3654-0.55974 10.374-1.5948zm261.64-165.36c1.2542-3.9911 1.9535-11.484 1.3647-14.622-0.66422-3.5406-2.5315-3.6656-3.1459-0.21053-0.88199 4.9601-1.5283 14.934-1.0488 16.183 0.77363 2.016 1.9481 1.4554 2.83-1.3508zm-256.37-2.5479c14.277-2.5466 22.335-9.5966 23.638-20.68 1.5288-13.008-7.1202-24.826-17.219-23.528-7.1189 0.91507-10.778 4.7218-14.853 15.453-1.2071 3.1786-2.9808 6.8766-3.9415 8.2178-0.96071 1.3412-3.1278 4.3769-4.8159 6.7459-4.1055 5.7617-4.7259 10.02-1.8753 12.87 1.8216 1.8216 2.7084 2.0621 7.5138 2.0374 2.9966-0.01539 8.1954-0.51797 11.553-1.1169zm-273.03-230.16c7.4799-4.3835 9.2441-13.236 2.6378-13.236-3.4584 0-5.9114 1.2524-9.8563 5.0323-2.8201 2.7021-3.6656 4.0896-3.6656 6.0152 0 4.5185 5.1437 5.5529 10.884 2.1888zm440.16-62.711c-0.43511-1.1427-0.34302-1.2348 0.44882-0.44883 0.54795 0.54387 0.79429 1.1908 0.54744 1.4377-0.24686 0.24685-0.69518-0.19813-0.99626-0.98885z" fill="#988977" stroke-width=".80177"/> <path d="m370.84 285.25c-6.495-0.39601-7.267-1.5368-1.5255-2.2541 7.2867-0.91042 49.5 0.96404 48.758 2.1651-0.40082 0.64854-36.927 0.71741-47.232 0.0891zm-40.489-5.0062c-57.67-10.404-108.82-31.56-155.94-64.501-45.551-31.842-84.647-74.789-112.45-123.52-13.171-23.089-29.768-61.112-27.333-62.617 2.6452-1.6348 7.3426 7.114 17.908 33.353 7.3542 18.264 13.503 28.77 28.86 49.309 16.743 22.393 27.211 32.65 42.616 41.76 9.7515 5.7665 13.097 8.3643 27.639 21.464 12.829 11.556 26.442 22.184 34.901 27.248 5.9109 3.5386 13.975 7.2618 27.054 12.49 15.019 6.0044 24.255 10.821 32.559 16.982 10.117 7.5046 15.082 10.208 30.868 16.805 16.582 6.9303 16.212 6.7382 29.264 15.188 12.003 7.7712 20.067 11.594 30.868 14.632 3.9688 1.1164 8.4787 2.3928 10.022 2.8364l2.8062 0.80664-3.608 5e-3c-1.9844 2e-3 -9.2003-1.0039-16.035-2.2369zm134.28-2.729c-1.2316-0.90054-1.3376-1.343-0.54919-2.293 1.8485-2.2273 16.303-7.9215 27.267-10.742 13.688-3.5207 16.94-5.1966 18.578-9.5728 0.67323-1.7988 2.6672-5.3633 4.4311-7.9211l3.2071-4.6506-0.25675-12.52c-0.31002-15.119-0.9337-18.317-4.786-24.547-2.4355-3.9382-2.965-5.5376-2.9198-8.8194 0.10378-7.5379 3.0969-11.335 16.301-20.679 6.6514-4.7069 9.7079-7.4277 11.225-9.9919 7.6549-12.94 15.246-20.179 30.547-29.13 27.263-15.948 32.212-21.294 45.207-48.839 3.908-8.2836 7.0256-13.694 21.175-36.75 2.256-3.6758 5.4082-10.055 7.0049-14.176 1.5967-4.121 4.906-10.855 7.3539-14.964 10.348-17.373 12.372-24.435 8.9133-31.106-2.7287-5.2627-6.0617-6.9177-13.086-6.498-3.0868 0.18445-7.7772 0.34087-10.423 0.3476-8.9929 0.02285-14.539-4.6456-21.035-17.706l-3.6813-7.4017-0.63534-16.494c-0.68954-17.901-1.423-22.011-5.9434-33.31-4.4467-11.114-3.9458-14.453 3.7343-24.888 5.0608-6.8762 6.7037-10.729 8.335-19.546 1.6278-8.7982 6.7344-24.382 10.562-32.231 3.368-6.9071 8.9671-12.549 13.726-13.83 6.2429-1.681 14.248 1.7285 20.129 8.5733 8.0874 9.413 16.584 32.231 19.242 51.676 0.88581 6.4803 2.1447 13.061 2.7976 14.623 1.7373 4.158 5.1359 8.7664 12.456 16.89 8.7591 9.7206 11.214 14.773 11.835 24.352 0.26317 4.0619 9e-3 13.311-0.56547 20.553-1.2331 15.553-0.95968 16.545 3.8873 14.11 1.6105-0.80922 4.3713-1.9302 6.1352-2.491 5.1951-1.6518 10.746-4.7053 16.32-8.9774 6.2397-4.7825 8.4714-5.7586 10.583-4.6287 3.143 1.6821 2.9723 7.4379-0.44439 14.988-1.1502 2.5417-4.5154 6.9561-8.564 11.234-6.3379 6.6971-6.9045 7.6043-11.407 18.263-2.606 6.1684-6.4896 15.095-8.6303 19.837-5.097 11.29-6.7904 18.253-5.548 22.811 0.50535 1.8541 1.8132 4.4339 2.9062 5.733 1.0931 1.299 2.2052 3.4508 2.4714 4.7816 0.81966 4.0983-2.5386 12.138-9.9968 23.933-3.8564 6.0988-9.064 14.579-11.573 18.846-2.5085 4.2664-8.525 12.714-13.37 18.774-11.482 14.359-16.5 23.97-18.09 34.647-0.61101 4.1023-1.9225 9.0837-2.9144 11.07-2.8199 5.6464-9.8683 12.817-17.834 18.142-9.978 6.6712-15.522 11.59-23.469 20.819-8.8013 10.223-14.536 18.609-15.187 22.209-0.28664 1.5856-0.9912 3.8128-1.5657 4.9494-2.0175 3.9914-12.43 11.497-25.851 18.633-26.794 14.247-62.454 27.093-91.794 33.069-11.016 2.2436-14.074 2.4019-16.211 0.83914zm189.48-152.07c5.7739-2.8853 11.007-8.4292 12.225-12.951 1.6628-6.1753-0.044-9.4245-4.3793-8.3364-2.4882 0.62451-15.287 12.579-16.987 15.866-2.1931 4.241-1.0344 7.8773 2.5102 7.8773 0.94381 0 3.9279-1.1053 6.6314-2.4562zm-356.12-84.499c-7.1589-2.9434-40.949-21.939-44.629-25.089-6.4878-5.5533-7.7984-10.756-5.564-22.088 0.88722-4.4997 1.9421-11.789 2.3442-16.199 0.90897-9.9687 3.7388-18.261 11.624-34.062 8.1259-16.282 9.581-20.411 12.013-34.088 1.1762-6.6146 3.5758-18.301 5.3323-25.97 2.8938-12.635 3.1117-14.339 2.3204-18.15-1.781-8.5791-11.068-21.17-25.861-35.062-16.644-15.63-17.511-19.174-8.9817-36.717 6.2106-12.774 7.132-15.767 8.7309-28.361 1.901-14.974 2.2638-15.503 24.428-35.636 4.0659-3.6933 10.745-10.729 14.842-15.634 9.5733-11.462 30.943-32.208 36.661-35.591 2.4341-1.4403 6.4079-3.0345 8.8308-3.5427 3.8905-0.81604 4.7673-0.74427 7.5047 0.61427 5.3273 2.6438 6.4178 4.9454 6.3594 13.421-0.0279 4.0478-0.34717 10.11-0.70943 13.473-1.4813 13.748 0.78862 16.291 21.78 24.404 12.587 4.8648 17.074 7.2311 28.642 15.104 10.434 7.1011 12.686 8.0432 32.862 13.749 11.069 3.1304 31.428 10.931 39.344 15.075 15.867 8.3053 26.803 30.248 23.344 46.838-1.5878 7.6151-6.1677 16.172-11.982 22.388-6.1195 6.5418-8.4528 7.896-17.042 9.8912-11.516 2.675-16.725 4.6526-20.287 7.7016-6.1679 5.2795-6.7455 8.5773-4.4099 25.179 1.8895 13.431 1.2086 22.719-2.5546 34.845-2.9385 9.468-2.9868 9.8383-3.0351 23.251-0.0269 7.4965 0.10011 18.14 0.28236 23.652 0.31446 9.5109 0.19673 10.47-2.3081 18.805-3.0524 10.158-6.1986 16.77-9.4363 19.832-3.0682 2.9018-11.298 6.6556-19.118 8.7201-5.5286 1.4596-9.7492 1.7725-30.571 2.2662l-24.157 0.57274-5.1074 2.5225c-3.1958 1.5784-8.1547 5.3134-13.249 9.9792-16.069 14.717-26.791 18.616-38.244 13.907zm-277.06-54.624c0.03847-0.93402 0.22846-1.124 0.4844-0.4844 0.23161 0.57877 0.20312 1.2703-0.0633 1.5367-0.26642 0.26642-0.45592-0.20713-0.4211-1.0523zm-1.9368-8.1513c-4.4755-21.332-7.883-51.61-7.6375-67.866l0.11026-7.2999 0.64602 7.6168c0.94589 11.152 2.96 27.193 5.6031 44.625 2.3326 15.383 3.7416 29.138 2.9849 29.138-0.22175 0-0.98984-2.7962-1.7069-6.2137zm734.59-193.15c-0.6052-0.72932-3.296-2.3112-5.9796-3.5153-4.1478-1.8611-5.1242-2.7139-6.5142-5.6894-2.6397-5.6512-9.0517-27.982-9.0517-31.524 0-6.353 6.037-0.38265 15.321 15.151 9.1239 15.267 12.943 26.903 8.8306 26.903-0.82795 0-2.0005-0.59672-2.6058-1.326zm-630.95-31.873c-1.578-0.54659-4.6448-2.3552-6.815-4.0192l-3.946-3.0253-16.005 0.55565-1.3504-2.8062c-2.6408-5.4878-3.3416-12.356-2.8559-27.988 0.66181-21.298 1.1589-22.764 16.204-47.795 10.632-17.688 12.802-21.977 11.686-23.093-3.3457-3.3457 3.4548-13.478 21.546-32.101 12.827-13.204 35.393-30.586 53.751-41.402 8.5403-5.0319 9.9048-4.81 5.1819 0.84287-4.8106 5.758-3.2847 6.9053 9.4133 7.0781 5.9159 0.0805 8.3285 0.57264 15.926 3.2487 4.9245 1.7346 10.807 4.3818 13.072 5.8828 9.3086 6.168 12.602 6.6398 34.99 5.0128 30.615-2.2249 39.21-1.3778 40.559 3.9977 0.89248 3.5559-0.88833 5.7319-9.1178 11.141-9.3066 6.117-12.46 9.3616-20.005 20.585-8.715 12.964-14.274 17.589-35.092 29.202-17.534 9.7803-39.752 24.793-52.917 35.756-6.6146 5.5084-16.356 13.465-21.648 17.682-10.108 8.0545-14.863 12.763-26.191 25.937-8.8506 10.293-10.716 12.008-15.1 13.889-5.1215 2.1969-7.9981 2.5586-11.288 1.4192zm447.23-186.98c-2.9868-0.64105-15.434-4.7239-27.661-9.073-12.227-4.3491-23.838-8.3389-25.802-8.8662-7.3627-1.9765-23.136-8.259-30.103-11.989-11.712-6.2719-39.475-16.734-50.11-18.884-13.205-2.669 7.8224-0.51164 27.145 2.7852 37.339 6.3707 77.381 19.815 107.55 36.111 16.316 8.8125 15.83 13.534-1.0207 9.9169zm-354.13-6.2382c4.2625-4.0675 47.261-22.868 49.998-21.861 1.4082 0.51822-28.562 14.99-39.715 19.177-10.921 4.1001-12.086 4.4043-10.284 2.684zm118.13-40.251c12.509-2.4865 45.43-5.6868 50.627-4.9216 1.6205 0.23859 1.0993 0.39222-1.6192 0.47729-2.2049 0.069-14.652 1.3834-27.661 2.921-24.865 2.9389-30.487 3.3401-21.347 1.5233zm90.909-4.0948c0.99732-0.19177 2.4405-0.18449 3.2071 0.0162 0.76656 0.20068-0.0495 0.35759-1.8133 0.34869-1.7639-9e-3 -2.3911-0.17309-1.3937-0.36487zm-12.036-0.80054c0.99219-0.1911 2.6158-0.1911 3.608 0 0.99218 0.1911 0.18039 0.34746-1.804 0.34746-1.9844 0-2.7962-0.15636-1.804-0.34746z" fill="#8b7862" stroke-width=".80177"/> <path transform="matrix(.26458 0 0 .26458 0 -496.75)" d="m1483.8 36.699c-179.56 1.7763-345.48 33.057-511.01 96.279-106.7 40.754-221.41 102.5-321.21 172.9-106.99 75.475-223.44 187.42-307.8 295.88-161.8 208.04-266.99 463.64-298.06 724.24-12.635 106-12.635 242.49 0 348.48 38.888 326.23 186.53 630.85 417.89 862.21 246.22 246.22 572.38 396.05 922.81 423.93 21.156 1.6826 61.73 2.5917 103.38 2.7285-291.05-57.866-555.82-234.33-747.97-498.89-195.17-268.73-302.61-610.72-302.98-964.46 0.13984-352.82 106.79-694.07 300.86-962.69 190.93-264.28 454.23-441.29 744.09-500.61z" fill-opacity=".31373" stroke-width="3.0303"/> </g> </svg>