<?xml version='1.0' encoding='utf-8'?>
<svg xmlns="http://www.w3.org/2000/svg" width="3e3" height="3e3" version="1.1" viewBox="0 0 793.75 793.75"> <g transform="translate(0 496.75)"> <path d="m369.21 284.11c-39.634-3.1523-78.02-11.914-113.85-25.988-11.907-4.677-38.715-17.648-50.511-24.439-51.737-29.788-96.181-71.626-129.06-121.49-84.996-128.92-84.996-295.22 0-424.14 32.876-49.865 77.321-91.704 129.06-121.49 11.797-6.7919 38.604-19.762 50.511-24.439 45.134-17.728 93.213-26.85 141.51-26.85s96.378 9.1225 141.51 26.85c11.907 4.677 38.715 17.648 50.511 24.439 51.737 29.788 96.181 71.626 129.06 121.49 84.996 128.92 84.996 295.22 0 424.14-32.876 49.865-77.321 91.704-129.06 121.49-11.797 6.7919-38.604 19.762-50.511 24.439-36.513 14.342-74.176 22.861-115.01 26.017-12.215 0.94385-42.13 0.92794-54.159-0.0288z" fill="#2b4e9e" stroke-width=".80177"/> <path d="m201.43 231.69c-49.805-29.201-93.513-70.774-125.64-119.5-59.607-90.408-78.444-200.9-52.148-305.87 11.449-45.708 32.655-91.611 60.004-129.89 24.112-33.745 55.608-65.234 89.656-89.635l6.9398-4.9736h433.26l6.9398 4.9736c28.932 20.735 57.164 47.678 78.799 75.203 65.207 82.957 93.668 189.43 78.461 293.52-10.279 70.36-39.768 136.39-85.461 191.36-27.344 32.896-65.085 64.822-101.02 85.455l-6.4929 3.7283-375.87-0.018z" fill="#1d58a1" stroke-width=".80177"/> <path d="m201.43 231.69c-49.805-29.201-93.513-70.774-125.64-119.5-84.996-128.92-84.996-295.22 0-424.14 26.513-40.213 62.987-77.71 100.48-103.3l4.5638-2.9341h216.2 216.2l7.2044 4.9736c29.292 20.222 57.164 47.678 78.799 75.203 65.207 82.957 93.668 189.43 78.461 293.52-10.279 70.36-39.768 136.39-85.461 191.36-27.344 32.896-65.085 64.822-101.02 85.455l-6.4929 3.7283-375.87-0.018zm191.43-187.27c40.077-2.4639 60.485-8.129 62.199-17.266 3.7414-19.943-64.231-45.394-141.23-52.881-15.658-1.5225-51.683-2.7434-81.721-2.7695-62.75-0.05444-87.777 6.0602-87.791 21.449-9e-3 10.6 13.662 23.343 34.874 32.505 25.294 10.925 59.574 17.478 99.018 18.928 25.18 0.92568 99.795 0.94842 114.65 0.03496zm-166.78-15.564c-15.341-5.6561-30.144-18.389-37.268-32.056-2.9881-5.7327-3.4783-8.5372-1.7438-9.9767 1.4901-1.2367 2.6933-0.10447 7.6796 7.2267 7.0609 10.381 16.225 17.884 33.028 27.039 6.7978 3.7039 9.1608 5.8512 8.4571 7.685-0.58839 1.5333-6.0957 1.5777-10.153 0.08177z" fill="#2a64b3" stroke-width=".80177"/> <path d="m93.707 137.27c-17.199-22.179-29.61-42.11-42.442-68.16-52.295-106.16-52.295-231.81 0-337.97 15.786-32.045 32.576-57.466 55.322-83.764l6.2486-7.0077h284.04 284.04l6.2486 7.0077c62.188 69.743 94.54 159.99 94.54 252.75 0 85.788-28.524 168.62-81.66 237.15l-5.1112 6.5913h-596.11zm301.97-92.872c53.09-3.4247 70.891-13.482 53.229-30.072-20.208-18.981-82.019-36.315-147.44-41.348-18.192-1.3995-105.91-1.4186-117.69-0.02574-27.455 3.2478-39.501 9.1793-39.657 19.528-0.23051 15.248 23.785 31.899 60.328 41.828 11.89 3.2305 29.265 6.4639 43.696 8.132 27.008 3.1217 112 4.2497 147.53 1.958zm-170.02-15.946c-16.559-5.8958-35.327-23.701-38.83-36.836-0.7527-2.823-0.72802-3.7286 0.12486-4.5812 1.4524-1.4519 2.113-0.85819 7.0508 6.3378 7.6712 11.179 16.029 18.135 32.898 27.378 8.4958 4.6555 10.293 6.282 8.8557 8.014-1.3367 1.6107-5.0174 1.4967-10.099-0.31276z" fill="#2b77c7" stroke-width=".80177"/> <path d="m254.84 57.249c-12.261-0.85319-27.777-3.8876-37.067-7.2494-6.707-2.4269-13.326-6.3841-13.326-7.9669 0-1.4039 7.7953-0.85952 22.326 1.5591 21.118 3.5151 27.17 4.0577 53.044 4.7566 23.653 0.63886 27.256 1.1216 27.256 3.6526 0 1.44-5.1337 3.4335-11.388 4.4223-7.5133 1.1878-29.309 1.6284-40.844 0.82575zm-29.548-29.116c-12.098-4.368-25.234-14.597-32.596-25.382-3.9524-5.7904-5.8892-10.15-5.8892-13.256 0-4.4441 2.0793-3.3247 6.7564 3.6373 7.4327 11.064 16.108 18.141 36.166 29.502 5.0173 2.842 6.0422 3.7573 5.8352 5.2115-0.35589 2.5015-3.8682 2.5997-10.273 0.28715zm4.8106-63.038c-3.0906-1.9821 4.3935-4.77 17.548-6.537 4.438-0.59613 12.206-0.75154 21.738-0.43495 19.963 0.66301 28.864 2.2442 28.864 5.1278 0 1.0434-2.5809 1.1235-20.245 0.6281-18.253-0.51194-30.111-0.07905-43.496 1.5879-1.7639 0.21968-3.7483 0.05236-4.4097-0.37188z" fill="#fff" fill-opacity=".58824" stroke-width=".80177"/> <path transform="matrix(.26458 0 0 .26458 0 -496.75)" d="m1477.5 45.635c-174.97 2.7121-348.79 37.05-512.37 101.3-45.004 17.677-146.32 66.699-190.91 92.369-195.54 112.58-363.52 270.71-487.78 459.18-321.24 487.24-321.24 1115.8 0 1603 124.26 188.47 292.24 346.6 487.78 459.18 44.585 25.67 145.91 74.692 190.91 92.369 135.42 53.192 280.5 86.308 430.3 98.223 19.615 1.5601 51.824 2.455 85.803 2.6856-287.64-58.425-549.19-233.4-739.25-495.1-194.04-267.17-300.85-607.17-301.22-958.87 0.13909-350.77 106.17-690.04 299.11-957.11 189.36-262.09 450.3-437.84 737.63-497.26z" fill-opacity=".31373" stroke-width=".98981"/> </g> </svg>