<?xml version='1.0' encoding='utf-8'?>
<svg xmlns="http://www.w3.org/2000/svg" width="3e3" height="3e3" version="1.1" viewBox="0 0 793.75 793.75"> <g transform="translate(0 496.75)"> <path d="m374.86 288.37c-53.053-2.8685-105.67-16.867-153.53-40.842-31.098-15.58-62.283-37.26-86.869-60.391-40.558-38.159-66.524-72.925-87.045-116.54-3.398-7.2225-6.9108-14.573-7.8064-16.334-4.0167-7.9008-13.3-34.372-17.83-50.843-16.587-60.312-18.268-125.77-4.8038-187.08 3.3433-15.223 7.9063-30.26 17.549-57.829 6.3248-18.083 20.004-45.185 33.571-66.512 18.194-28.601 48.697-64.221 73.049-85.305 18.713-16.201 44.996-34.658 66.374-46.609 29.596-16.546 71.903-32.543 105.29-39.814 61.821-13.463 127.06-11.805 187.36 4.762 57.491 15.795 109.11 43.715 153.33 82.927 21.513 19.078 35.494 33.793 50.586 53.24 28.272 36.429 46.761 71.534 63.007 119.63 22.849 67.643 24.729 153.19 4.9011 222.99-8.5359 30.046-21.554 61.22-36.74 87.98-2.4687 4.3501-4.4886 8.0281-4.4886 8.1733 0 0.59323-11.751 18.819-16.217 25.152-9.5137 13.492-27.665 35.193-39.751 47.524-68.44 69.826-159.11 110.47-258.3 115.79-16.868 0.90432-23.942 0.89362-41.635-0.063z" fill="#e8a756" stroke-width=".80068"/> <path d="m317.1 280.14c-45.782-9.9855-92.857-29.022-129.27-52.274-14.339-9.1568-42.009-29.673-42.846-31.769-0.14537-0.36415-2.2487-2.3877-4.674-4.4968-7.1758-6.2401-31.224-30.018-36.931-36.515-13.884-15.808-26.011-32.599-37.349-51.714-10.211-17.216-11.901-20.321-11.352-20.87 0.24334-0.24334 1.6605 0.26589 3.1492 1.1316 6.4961 3.7776 12.958 3.943 62.839 1.6086 30.937-1.4479 56.491-0.56848 177.19 6.0978 67.967 3.7538 100.93 5.4367 133.09 6.7951 116.23 4.9087 193.72 4.7455 242.94-0.5118 16.285-1.7397 40.571-1.7402 48.455-8.02e-4 3.2785 0.72331 6.2469 1.6011 6.5965 1.9507 0.34955 0.34955-0.66969 2.7904-2.265 5.4242-1.5953 2.6338-3.7667 6.3278-4.8254 8.2089-2.8876 5.1311-14.74 21.28-21.616 29.452-3.3393 3.9688-8.2158 9.9219-10.837 13.229-6.063 7.6507-23.337 25.168-34.751 35.239-38.778 34.219-81.047 58.719-130.29 75.516-10.42 3.5547-22.508 6.7032-28.463 7.4138-24.269 2.896-42.508 3.7126-101.42 4.5408-29.766 0.41844-56.284 1.0875-58.93 1.4867-2.6458 0.39924-6.2538 0.92947-8.0177 1.1783-1.8952 0.26733-6.1589-0.19143-10.423-1.1215zm-130.29-214.9c-39.526-0.80826-49.856-1.8795-64.176-6.6551-11.14-3.7149-40.595-7.1577-62.102-7.2588-11.942-0.056124-14.876 0.16079-17.004 1.2572-1.9314 0.99484-2.7656 1.0922-3.3477 0.39078-2.2913-2.7609-14.917-39.323-18.866-54.632-5.997-23.25-6.9984-28.496-9.7958-51.313-0.70283-5.7326-1.6241-13.129-2.0473-16.436-1.0534-8.2325-1.0387-52.542 0.020253-60.934 2.5601-20.289 3.4866-26.937 4.9724-35.679 2.0132-11.845 5.5606-28.414 6.4564-30.156 1.5487-3.0125 19.226-4.5885 75.692-6.7483 46.675-1.7853 65.838-3.3869 82.181-6.8687 27.291-5.8141 41.598-6.6962 98.981-6.1025 44.529 0.46069 60.561 1.1993 125.11 5.7641 100.81 7.1286 107.6 7.2371 176.39 2.8157 32.568-2.0934 54.803-3.0421 94.208-4.0197 53.981-1.3391 69.904-3.3635 83.588-10.627 3.8098-2.0222 6.4879-3.0067 6.9157-2.5424 1.232 1.3373 8.4678 24.841 11.711 38.04 2.9996 12.208 4.1077 20.024 8.4125 59.331 0.92058 8.4058 0.98281 30.884 0.12913 46.639-0.43077 7.9504-0.85141 10.492-1.9348 11.689-1.5225 1.6824-1.8404 4.635-0.58266 5.4123 1.6338 1.0097 0.12042 18.408-2.9291 33.674-1.0571 5.2917-2.4537 12.526-3.1037 16.077-1.9541 10.675-13.035 46.155-16.347 52.345-0.65193 1.2181-2.604 1.8042-9.4653 2.8417-18.87 2.8534-34.003 3.7318-77.596 4.5043-24.253 0.42976-65.565 1.1575-91.802 1.6172-46.771 0.81948-66.515 1.5144-91.402 3.2171-15.15 1.0365-31.262 2.9152-34.031 3.9682-2.259 0.85888-2.7244 2.7927-0.8456 3.5137 0.66146 0.25382 1.2026 0.97803 1.2026 1.6093 0 2.3863-12.776 4.0725-40.098 5.2921-20.155 0.89974-184.15 0.88192-228.49-0.02485zm-73.362-210.03c11.024-0.43723 32.672-1.6818 48.106-2.7658 15.434-1.084 37.082-2.3928 48.106-2.9086 26.107-1.2214 116.94-0.48926 167.57 1.3506 45.247 1.6444 129.74 1.8974 166.37 0.4983 13.891-0.53068 48.527-1.3263 76.97-1.768 50.132-0.77858 86.086-1.9755 92.538-3.0806 4.1947-0.71844 4.5326-2.2477 0.71903-3.2538-6.5312-1.7232-47.789-6.2068-92.456-10.047-54.695-4.7028-118.21-6.499-202.05-5.7138-58.345 0.54645-106.9-0.32756-128.68-2.3164-25.187-2.2995-49.515-3.1538-91.001-3.1959-44.413-0.0451-55.015 0.54807-63.795 3.5688-7.3735 2.5369-19.573 4.577-42.926 7.1788-24.611 2.7419-32.384 4.1027-37.455 6.5576-3.746 1.8134-4.9025 3.453-3.4558 4.8997 0.49953 0.49953 0.90823 2.0905 0.90823 3.5356 0 4.6815 5.4625 6.4046 23.577 7.4371 15.505 0.88381 15.278 0.88366 36.957 0.0238zm142.31-97.882c-12.968-0.62907-37.02-2.035-74.564-4.3588-35.24-2.1811-69.122-1.5875-114.65 2.0085-27.617 2.1812-30.121 2.2487-29.824 0.80332 0.65861-3.2092 6.4474-17.015 11.304-26.96 7.1749-14.692 26.739-47.159 30.096-49.945 0.8458-0.70195 2.2356-0.63318 5.7929 0.28667 6.2684 1.6209 26.552 4.9464 37.954 6.2224 15.514 1.7363 38.838 1.181 68.551-1.6321 14.552-1.3777 42.153-3.7712 61.335-5.3189 59.286-4.7834 80.979-8.3284 80.979-13.234 0-2.4846-4.9236-4.3502-18.896-7.1603-25.96-5.2208-58.778-9.1868-106.58-12.88-17.639-1.3627-38.565-3.1972-46.503-4.0766-20.667-2.2899-42.7-6.966-43.452-9.2219-0.34529-1.0359 20.39-21.986 26.784-27.062 30.284-24.04 54.308-39.859 78.212-51.499 6.4623-3.1468 7.1989-3.3351 9.2203-2.3574 1.2083 0.5844 5.2637 1.4514 9.012 1.9267 7.2704 0.92185 52.667 4.0219 88.996 6.0773 28.167 1.5936 42.761 2.6624 51.313 3.7581 12.685 1.625 13.509 3.1821 3.8084 7.1915-4.9499 2.0458-6.6745 3.1492-6.8527 4.3844-0.18844 1.3063 0.4222 1.8484 2.9275 2.5991 10.071 3.0174 51.512 6.3301 102.45 8.1892 33.461 1.2214 61.981-0.26157 94.105-4.8931 16.315-2.3522 20.575-3.9245 18.773-6.9279-2.1028-3.5049-16.972-6.1102-54.051-9.4705-30.789-2.7902-37.683-3.823-37.683-5.6451 0-2.1356 3.7025-3.2083 21.858-6.3326 19.115-3.2895 21.847-5.3815 11.416-8.7423-6.344-2.044-13.664-3.3917-37.683-6.9374-27.567-4.0694-32.926-5.2096-48.571-10.333-21.149-6.9261-42.418-11.084-61.588-12.041l-10.908-0.54437 7.2159-0.69308c8.5911-0.82517 42.599 0.5726 57.326 2.3562 32.567 3.9441 60.867 10.951 93.005 23.028 42.085 15.815 82.94 40.608 117.46 71.28 31.651 28.124 51.732 51.63 72.902 85.333 6.8852 10.962 23.712 43.5 23.712 45.852 0 0.90732-0.6225 1.0793-2.6058 0.71978-5.4698-0.9915-21.029-2.081-41.491-2.9054-23.443-0.94448-37.495-1.8629-55.92-3.655-13.595-1.3223-20.755-2.6184-30.271-5.4793-9.8687-2.967-18.815-3.7012-44.498-3.6517-21.998 0.0423-30.515 0.53185-31.811 1.8284-1.007 1.007 0.43494 1.4439 9.818 2.9745 10.661 1.7391 12.372 2.1776 12.372 3.1714 0 1.743-4.5748 2.6485-38.345 7.5897-13.614 1.9919-29.047 4.5061-34.294 5.5869-5.2479 1.0809-14.593 2.5171-20.766 3.1916-19.977 2.1826-71.867 5.4357-122.27 7.6654-20.728 0.91693-75.117 0.87825-94.609-0.0673zm116.47-244.23c1.2187-0.18429 3.0227-0.17937 4.0088 0.0109 0.98612 0.19031-0.0111 0.34109-2.2159 0.33507-2.2049-6e-3 -3.0117-0.16172-1.793-0.34601z" fill="#d98b33" stroke-width=".80177"/> <path d="m412.11 248.84c-136.93-0.49911-163.88-0.96596-184.63-3.1982-4.3101-0.4637-9.2385-1.3377-10.952-1.9423-5.1486-1.8166-21.251-11.243-35.732-20.917-13.804-9.2221-34.877-25.371-34.877-26.728 0-1.2368 4.7099-1.6331 39.287-3.3058 51.081-2.4712 64.681-4.0696 66.101-7.7688 0.72163-1.8806-1.4281-3.7826-8.3386-7.3779-12.101-6.2956-18.056-6.9606-72.194-8.0625-40.338-0.821-50.461-1.5699-55.865-4.1328-3.6624-1.737-12.518-11.42-24.838-27.158-8.1969-10.471-17.914-24.291-17.914-25.478 0-0.43714 3.7766 0.59351 8.3925 2.2904 19.682 7.2354 58.968 11.697 96.207 10.925 21.68-0.44917 33.091-1.6107 57.759-5.8791 14.177-2.4532 17.527-3.437 17.876-5.2505 0.20624-1.071-1.6221-1.9309-9.0089-4.2369-9.9549-3.1076-11.637-4.6681-6.2611-5.8082 1.6536-0.35071 17.078-0.60077 34.276-0.55568 30.185 0.0791 48.58 0.65857 192.02 6.0487 85.328 3.2063 124.7 3.3763 177.99 0.76823 27.898-1.3654 43.123-1.7459 56.926-1.4229 20.103 0.47051 23.251 0.83878 23.251 2.7202 0 1.7898-13.637 21.017-16.422 23.154-1.3305 1.0208-4.0427 3.128-6.0271 4.6827-1.9844 1.5546-6.2237 4.8606-9.4208 7.3467-6.191 4.8142-7.0594 6.7075-3.7648 8.2086 1.9338 0.88108 1.9784 1.0336 0.79939 2.7344-2.3338 3.3668-24.857 25.689-34.116 33.812-24.389 21.395-51.642 39.875-79.159 53.675-6.9666 3.494-7.742 3.7017-13.229 3.5439-3.2059-0.0922-69.87-0.40106-148.14-0.68637zm295.05-220.24c-4.3238-0.35772-5.4708-1.2419-3.965-3.0562 3.2004-3.8562-6.6189-4.8006-48.15-4.6305-45.769 0.1874-90.444 1.7092-125.48 4.2742-20.544 1.5042-76.233 0.96335-165.16-1.604-69.116-1.9953-100.62-4.9913-100.62-9.5687 0-1.5895 1.4437-2.2676 12.427-5.8369 6.5904-2.1416 7.7163-4.0103 3.4692-5.7579-1.4671-0.60368-7.5382-1.8935-13.491-2.8662-14.39-2.3512-29.441-5.5118-32.667-6.8599-3.3124-1.384-3.3624-3.2271-0.10504-3.8786 3.7574-0.75149 30.668-0.59912 52.416 0.29678 36.468 1.5023 59.485 3.419 78.088 6.5026 11.057 1.8328 12.868 2.3774 16.921 5.0904 1.5684 1.0498 5.1048 2.2514 8.0177 2.7243 27.966 4.5401 113.76 7.7927 170.93 6.4808 56.659-1.3 90.168-4.5745 119.31-11.659 19.389-4.7139 21.144-6.2878 9.6212-8.6297-10.844-2.2039-34.569-4.3688-71.357-6.5112-35.564-2.0712-95.069-7.6304-121.07-11.311-16.422-2.3247-26.001-4.4385-34.873-7.6956-19.05-6.9934-46.204-8.6667-142.39-8.7742-61.402-0.06863-83.941 0.5746-102.6 2.9283-11.569 1.4593-14.099 2.3236-15.664 5.3511-3.0188 5.8378-13.703 7.1961-71.28 9.0615-20.726 0.6715-49.048 1.8015-62.939 2.5112-23.319 1.1913-44.305 1.1287-48.657-0.14533-2.0698-0.6059-3.1812-3.4211-3.9166-9.9207l-0.53642-4.7413 3.1033 1.1062c7.6547 2.7286 32.135 0.21778 33.539-3.4399 0.68932-1.7963-1.6211-3.7861-9.2799-7.9919-7.4617-4.0976-9.1115-5.8345-8.3685-8.8107 1.3303-5.3292 1.0655-6.0983-2.3642-6.8664-1.7639-0.39506-7.0527-0.53315-11.753-0.30687l-8.5459 0.41142-0.65851-8.5594c-0.79502-10.334-0.59964-47.236 0.29153-55.062 0.63808-5.6036 0.64283-5.6121 3.0357-5.4549 1.3181 0.0866 17.55 1.086 36.071 2.2208 75.893 4.6501 79.831 5.0318 90.917 8.8128 3.2615 1.1123 8.6734 2.4249 12.027 2.917 9.0525 1.3284 156.23 1.9335 189.7 0.77992 31.156-1.0738 40.923-1.6104 96.212-5.2864 75.508-5.0203 119.67-6.7724 171.58-6.8069 31.697-0.0211 53.421-0.96045 65.745-2.843 16.418-2.508 20.56-2.8255 42.895-3.2888 28.098-0.58277 32.354-0.0872 37.146 4.3253 2.7738 2.5542 5.3625 3.7401 15.191 6.959 8.881 2.9087 12.243 4.3838 13.43 5.8919 1.7094 2.1732 2.0832 6.5774 0.767 9.0368-1.262 2.3582-6.8544 3.5802-39.954 8.7303-11.178 1.7393-20.529 3.3671-20.779 3.6174-0.9945 0.99451 0.88337 1.4973 8.3191 2.2274 8.064 0.79175 11.537 1.6746 11.537 2.9327 0 2.2131-10.76 3.0417-58.529 4.5071-57.389 1.7605-84.86 3.6772-116.26 8.1113-13.824 1.9524-15.437 3.4408-5.4349 5.0161 3.2097 0.50552 14.314 1.8198 24.677 2.9206 35.213 3.7406 41.692 4.9204 41.692 7.5921 0 1.5043-3.8143 3.4203-12.027 6.0411-7.6954 2.4559-8.0589 3.7995-1.3891 5.1333 9.149 1.8296 31.944 3.3688 78.359 5.2908 32.726 1.3552 51.278 2.402 64.943 3.6644 16.134 1.4904 20.846 3.129 20.846 7.2485 0 3.0721-2.1237 10.568-4.1073 14.496-1.1472 2.2722-1.4555 4.4348-1.3146 9.2203 0.15627 5.3077-0.34108 8.0925-3.2931 18.439-1.9125 6.7029-3.8909 12.748-4.3966 13.433-0.54367 0.73662-4.6872 2.0639-10.14 3.2479-5.0712 1.1013-14.452 3.26-20.846 4.7971-14.135 3.3981-21.744 4.4037-28.864 3.8147zm68.985-194.76c-4.2869-1.8672-12.708-3.224-28.896-4.6559-47.501-4.2016-66.886-6.7111-80.976-10.483-10.371-2.776-13.249-4.8999-10.138-7.4817 3.8495-3.1948 28.424-8.3906 49.823-10.534 11.042-1.1061 33.041-1.13 38.886-0.0423 4.1014 0.76335 26.231 7.5365 28.814 8.8189 1.6044 0.79668 7.0672 25.974 5.5656 25.651-0.1672-0.036-1.552-0.60898-3.0774-1.2734zm-735.25-88.577c0-0.506 3.4231-7.9426 7.6068-16.526 6.9959-14.352 7.7525-15.569 9.4208-15.153 0.99767 0.24916 8.1279 0.8322 15.845 1.2956 30.521 1.8329 41.27 4.0428 49.231 10.121 2.0274 1.548 3.6861 3.3595 3.6861 4.0256 0 3.0647-13.57 6.3151-46.503 11.139-10.804 1.5824-23.911 3.5837-29.127 4.4474-11.198 1.8542-10.16 1.7877-10.16 0.65028zm690.32-30.009c-2.3237-0.53247-34.255-2.7549-50.912-3.5436-21.332-1.01-122.35-3.7891-160.35-4.4114-63.857-1.0456-100.09-2.44-137.1-5.276-34.104-2.6132-54.785-5.3038-57.819-7.5224-1.3208-0.96579-1.3125-1.0693 0.14791-1.8366 3.321-1.7449 14.322-2.9978 58.072-6.6136 61.098-5.0496 91.3-8.1754 108.94-11.275 13.916-2.4455 15.415-3.9871 6.3017-6.4835-2.9367-0.80448-8.8704-3.0472-13.186-4.9839-9.4526-4.2421-17.771-6.4029-32.701-8.4941-13.848-1.9398-57.435-6.0552-115.05-10.864-63.405-5.2911-80.506-7.2015-86.39-9.6506-5.2157-2.1708-2.4314-3.6218 10.623-5.536 11.895-1.7442 27.33-2.6892 66.547-4.0744 35.888-1.2676 54.74-2.3319 55.544-3.1358 1.0387-1.0387-1.0846-1.4791-10.406-2.1585-12.33-0.89864-98.362-2.2765-177.19-2.8378-44.726-0.31849-60.225-0.67003-61.207-1.3883-1.146-0.83799-0.42119-1.7303 5.6317-6.9327 3.8208-3.284 7.7321-6.379 8.6916-6.8778 0.95957-0.49879 10.223-1.5014 20.586-2.2279 10.363-0.72657 26.959-2.2086 36.881-3.2934 29.086-3.18 45.791-3.8461 71.584-2.8544 45.875 1.7639 70.157 4.2692 102.25 10.549 20.328 3.9782 64.725 10.301 83.536 11.897 5.5122 0.46761 21.748 1.5784 36.08 2.4684 27.751 1.7234 44.164 3.0284 47.104 3.7452 2.8807 0.70245 2.0986 1.6474-1.804 2.1794-1.9844 0.27056-5.2315 0.71328-7.2159 0.98384-3.6499 0.49764-4.5979 1.362-2.4132 2.2003 1.1564 0.44377 19.837 1.2003 72.568 2.9387 68.031 2.2429 69.166 2.3104 71.242 4.2368 3.6024 3.3427 16.73 18.632 24.366 28.378 12.434 15.87 33.477 48.65 33.477 52.148 0 0.94683-3.4014 1.2364-6.4141 0.54597z" fill="#aa612d" stroke-width=".80177"/> <path transform="matrix(.26458 0 0 .26458 0 -496.75)" d="m1486.4 30.338c-102.1 0.93429-204.3 12.231-304.15 33.975-126.19 27.48-286.08 87.942-397.94 150.48-80.799 45.17-180.14 114.93-250.86 176.16-92.038 79.686-207.33 214.32-276.09 322.41-51.278 80.606-102.98 183.04-126.88 251.38-36.444 104.2-53.69 161.03-66.326 218.57-50.888 231.71-44.535 479.12 18.156 707.07 17.12 62.251 52.205 162.3 67.387 192.16 3.3847 6.6576 16.661 34.439 29.504 61.736 77.563 164.86 175.7 296.26 328.99 440.48 92.923 87.427 210.79 169.37 328.32 228.25 180.88 90.616 379.76 143.52 580.27 154.37 32.38 1.7507 55.342 2.6547 77.662 2.7422-292.9-57.832-559.39-235.22-752.7-501.38-196.04-269.92-303.95-613.42-304.32-968.74 0.14035-354.38 107.26-697.15 302.19-966.96 191.65-265.27 455.89-442.99 746.79-502.71z" fill-opacity=".31373" stroke-width="3.0262"/> </g> </svg>