<?xml version='1.0' encoding='utf-8'?>
<svg xmlns="http://www.w3.org/2000/svg" width="3e3" height="3e3" version="1.1" viewBox="0 0 793.75 793.75"> <g transform="translate(0 496.75)"> <path d="m375.05 293.74c-96.632-5.2248-188.05-46.172-256.78-115.02-32.423-32.476-55.995-65.685-76.153-107.28-23.824-49.164-36.471-99.48-38.875-154.66-3.4817-79.926 17.348-158.38 60.163-226.6 28.798-45.885 68.086-86.462 113.2-116.92 33.732-22.77 74.567-41.566 114.95-52.91 85.15-23.922 177.83-17.807 259.51 17.119 176.12 75.311 272.29 263.92 229.94 450.94-12.537 55.36-38.243 109.17-74.043 155-13.938 17.843-35.216 40.231-52.118 54.836-17.314 14.962-41.247 31.993-60.722 43.212-11.785 6.7887-39.916 20.415-51.453 24.922-41.68 16.286-81.94 25.058-125.95 27.443-16.296 0.88307-24.099 0.86761-41.672-0.0825z" fill="#2ccce3" stroke-width=".79375"/> <path d="m362.35 292.67c-78.097-7.4305-150.06-36.088-209.7-83.511-28.199-22.423-56.092-51.998-76.985-81.628-9.1992-13.046-27.248-42.371-27.248-44.271 0-0.20711 1.351 0.29187 3.0023 1.1089 9.9419 4.9188 37.886 7.7088 95.153 9.5 33.807 1.0574 170.21 0.51583 201.09-0.79841 122.59-5.2185 186.22-12.232 267.89-29.533 66.2-14.023 104.5-29.937 125.66-52.218 13.023-13.71 20.113-26.992 29.816-55.85 4.4999-13.384 8.6861-21.056 15.85-29.048l3.1065-3.4659-0.54523 7.0378c-5.075 65.508-26.503 129.01-61.969 183.65-32.078 49.418-71.644 88.875-119.28 118.95-50.904 32.14-103.5 50.802-166.07 58.921-16.745 2.1728-62.169 2.8314-79.772 1.1566zm-51.594-726.4c-52.846-2.2229-80.763-5.215-93.008-9.9688-4.2589-1.6534-5.608-3.1734-3.9803-4.4847 1.5959-1.2856 14.723-7.6662 24.758-12.034 35.539-15.469 73.915-26.178 109.54-30.566 30.493-3.7564 65.173-3.8868 95.25-0.35799 44.38 5.2068 90.43 19.31 132.51 40.584 6.1984 3.1333 6.9045 3.6955 5.5515 4.4196-2.4038 1.2865-20.183 3.6394-40.038 5.2986-27.432 2.2924-50.004 3.6844-98.425 6.0699-15.679 0.77245-119.16 1.5865-132.16 1.0396z" fill="#36d7e6" stroke-width=".79375"/> <path d="m363.93 292.67c-73.82-7.0791-137.83-30.577-195.66-71.821-20.876-14.89-51.679-41.783-49.441-43.165 2.8798-1.7798 33.297-5.898 56.585-7.6611 37.358-2.8282 106.72-5.0317 121.68-3.8653 9.3689 0.7306 29.319 1.8971 65.647 3.8386 90.024 4.811 143.98 4.2888 200.82-1.9435 5.8936-0.64627 22.86-1.5229 37.703-1.9481 14.843-0.42521 40.103-1.5678 56.133-2.539 20.914-1.2671 29.657-1.5313 30.956-0.93526 1.7182 0.78819 1.1622 1.4877-10.889 13.698-64.789 65.643-146.93 105.31-239.32 115.57-15.774 1.7523-59.263 2.2028-74.216 0.76892zm-34.925-758.99c-27.27-2.2014-37.703-4.7041-37.703-9.0446 0-2.4442 5.4028-5.3642 13.943-7.5356 41.242-10.486 94.487-13.478 139.65-7.8458 19.297 2.4065 47.128 8.0884 61.516 12.559 3.4392 1.0686 3.4982 1.1384 1.5875 1.8798-6.8031 2.6397-60.395 7.6387-103.98 9.6994-15.384 0.72733-67.107 0.92593-75.009 0.28802z" fill="#9cf5ff" stroke-width=".79375"/> <path transform="matrix(.26458 0 0 .26458 0 -496.75)" d="m1503.1 10.338c-77.953-0.22134-155.9 5.6584-232.96 17.703-0.017 0.002645-0.0339 0.005166-0.0508 0.007812-30.454 4.895-60.847 10.726-91.146 17.51-213.72 47.849-418.65 143.94-590.66 276.95-10.692 8.268-21.059 16.37-27.436 21.42-3.9279 3.2039-7.8397 6.4289-11.736 9.6738-26.568 22.447-50.921 44.099-73.83 65.705-90.322 85.837-170.14 182.88-235.61 287.2-161.82 257.83-240.55 554.36-227.39 856.44 9.0857 208.57 56.885 398.74 146.93 584.55 32.716 67.514 67.825 129.17 106.93 187.28 46.289 68.033 98.426 132.52 156.09 192.64 170.87 178.15 381.88 310.79 617.58 388.22 109.21 35.876 228.1 59.89 343.78 69.805 11.296 0.8722 22.613 1.6175 33.949 2.2304 40.13 2.1698 66.79 3.0416 95.186 2.6621-302.15-56.648-577.33-237.16-776.38-509.43-199.81-273.31-309.8-621.13-310.18-980.91 0.14286-358.84 109.32-705.9 308.01-979.1 197.04-270.94 469.37-451.67 768.93-510.56z" fill-opacity=".31373" stroke-width="1.0159"/> </g> </svg>